<?xml version="1.0" encoding="UTF-8" standalone="no"?>
<svg
   viewBox="0 0 2925 375"
   width="468"
   height="60"
   version="1.1"
   id="svg6"
   sodipodi:docname="fairknowe.svg"
   inkscape:version="1.2 (dc2aeda, 2022-05-15)"
   inkscape:export-filename="fki_icon.png"
   inkscape:export-xdpi="96"
   inkscape:export-ydpi="96"
   xmlns:inkscape="http://www.inkscape.org/namespaces/inkscape"
   xmlns:sodipodi="http://sodipodi.sourceforge.net/DTD/sodipodi-0.dtd"
   xmlns="http://www.w3.org/2000/svg"
   xmlns:svg="http://www.w3.org/2000/svg">
  <defs
     id="defs10" />
  <sodipodi:namedview
     id="namedview8"
     pagecolor="#ffffff"
     bordercolor="#000000"
     borderopacity="0.25"
     inkscape:showpageshadow="2"
     inkscape:pageopacity="0.0"
     inkscape:pagecheckerboard="true"
     inkscape:deskcolor="#d1d1d1"
     showgrid="false"
     inkscape:zoom="1.5378494"
     inkscape:cx="226.94029"
     inkscape:cy="50.395051"
     inkscape:window-width="1480"
     inkscape:window-height="751"
     inkscape:window-x="0"
     inkscape:window-y="25"
     inkscape:window-maximized="0"
     inkscape:current-layer="svg6" />
  <g
     aria-label="FAIRKNOWE"
     transform="scale(1.0530713,0.94960332)"
     id="text396"
     style="font-weight:bold;font-size:400px;font-family:Copperplate;-inkscape-font-specification:'Copperplate, Bold';fill:#ffffff;stroke:#ffffff;stroke-width:9.375">
    <path
       d="m 361.79673,152.45087 q -0.8,-5.6 -2.4,-7.6 -1.6,-2 -4.8,-2 h -132 v 35.6 h 88.8 q 3.2,0 4.8,-1.6 1.6,-2 2.4,-7.6 h 4.8 v 67.2 h -4.8 q -0.8,-6.8 -2.4,-8.8 -1.6,-2 -4.8,-2 h -88.8 v 66.8 q 0,2.8 1.6,4.8 2,1.6 9.6,2.4 v 4.8 h -84 v -4.8 q 7.6,-0.8 9.2,-2.4 2,-2 2,-4.8 v -186.4 q 0,-2.8 -2,-4.4 -1.6,-2.000003 -9.2,-2.800003 v -4.8 h 204.8 q 3.2,0 4.8,-2 1.6,-2.4 2.4,-9.2 h 4.8 v 69.600003 z"
       style="display:inline"
       id="path6498" />
    <path
       d="m 464.19666,295.65087 q 0,2 1.2,3.2 1.6,0.8 6,0.8 v 4.8 h -70.8 v -4.8 q 4.4,-0.8 6.4,-2.4 2,-2 4,-6.8 0.8,-2 4,-10.8 3.2,-8.8 8.4,-22 5.2,-13.6 11.6,-30 6.4,-16.4 12.8,-33.2 6.4,-17.2 12.4,-33.2 6.4,-16.4 11.2,-29.2 4.8,-12.8 7.6,-20.8 3.2,-8 3.2,-8.4 0,-2 -2.8,-2.8 -2.4,-0.800003 -5.2,-1.200003 v -4.8 h 104.4 v 4.8 q -3.2,0.4 -5.2,1.200003 -2,0.8 -2,4 0,0.8 3.6,10.4 4,9.6 10,25.2 6,15.2 13.6,34.8 8,19.2 16.4,39.6 8.4,20 16,39.2 8,19.2 14.4,34.4 3.2,7.2 5.2,9.6 2.4,2.4 6,2.4 v 4.8 h -78.8 v -4.8 q 7.6,-0.4 7.6,-4.8 0,-0.4 -2,-5.2 -2,-5.2 -4.4,-11.2 -2.4,-6.4 -4.8,-12 -2,-5.6 -2.4,-7.6 h -94.8 q -4,10.8 -6.4,17.6 -2.4,6.8 -4,10.8 -1.2,4 -2,6 -0.4,1.6 -0.4,2.4 z m 97.2,-68.8 -38.8,-95.2 -35.6,95.2 z"
       style="display:inline"
       id="path6500" />
    <path
       d="m 709.79597,299.65087 q 7.6,-0.8 9.2,-2.4 2,-2 2,-4.8 v -186.4 q 0,-2.8 -2,-4.4 -1.6,-2.000003 -9.2,-2.800003 v -4.8 h 82.4 v 4.8 q -7.6,0.8 -9.6,2.800003 -1.6,1.6 -1.6,4.4 v 186.4 q 0,2.8 1.6,4.8 2,1.6 9.6,2.4 v 4.8 h -82.4 z"
       style="display:inline"
       id="path6502" />
    <path
       d="m 999.39595,182.85087 q 17.59995,0 23.99995,-6.4 6.8,-6.8 6.8,-15.6 0,-8.8 -6.8,-15.2 -6.4,-6.8 -23.99995,-6.8 h -67.2 v 44 z m -67.2,109.6 q 0,2.8 1.6,4.8 2,1.6 9.6,2.4 v 4.8 h -82.4 v -4.8 q 7.6,-0.8 9.2,-2.4 2,-2 2,-4.8 v -186.4 q 0,-2.8 -2,-4.4 -1.6,-2.000003 -9.2,-2.800003 v -4.8 h 146.39995 q 44.4,0 64.4,16.400003 20,16 20,50 0,27.6 -16.4,43.2 -16,15.6 -40.8,22.4 l 47.2,66.4 q 4.8,7.2 11.6,7.2 v 4.8 h -83.2 v -4.8 q 8.8,-0.4 8.8,-7.2 0,-0.8 -3.2,-5.6 -3.2,-4.8 -8,-11.6 -4.8,-6.8 -10.79995,-14.4 -5.6,-8 -11.2,-15.2 -5.2,-7.2 -9.2,-12.8 -4,-5.6 -5.2,-7.6 h -39.2 z"
       style="display:inline"
       id="path6504" />
    <path
       d="m 1307.7952,299.65087 q 3.6,0 5.6,-0.4 2,-0.8 2,-4.8 0,-1.2 -3.6,-7.2 -3.6,-6 -9.2,-14.8 -5.6,-8.8 -12.4,-18.8 -6.8,-10 -12.8,-19.2 -6,-9.2 -10.8,-16 -4.8,-6.8 -6.4,-9.2 l -39.2,35.2 v 48 q 0,2.8 1.6,4.8 2,1.6 9.6,2.4 v 4.8 h -82.4 v -4.8 q 7.6,-0.8 9.2,-2.4 2,-2 2,-4.8 v -186.4 q 0,-2.8 -2,-4.4 -1.6,-2.000003 -9.2,-2.800003 v -4.8 h 82.4 v 4.8 q -7.6,0.8 -9.6,2.800003 -1.6,1.6 -1.6,4.4 v 72 h 2.8 q 12,-11.6 25.6,-24 14,-12.4 25.6,-22.8 11.6,-10.8 19.2,-18 8,-7.6 8,-9.2 0,-3.6 -2,-4 -2,-0.800003 -5.2,-1.200003 v -4.8 h 101.6 v 4.8 q -4,0.4 -6.8,1.200003 -2.4,0.8 -4.8,2.4 -2,1.6 -4.8,4 -2.4,2 -6,5.2 l -69.2,59.6 81.6,122 q 3.2,4.8 6,5.6 2.8,0.8 6.8,0.8 v 4.8 h -91.6 z"
       style="display:inline"
       id="path6506" />
    <path
       d="m 1449.7945,106.05087 q 0,-2.8 -2,-4.4 -1.6,-2.000003 -9.2,-2.800003 v -4.8 h 96.4 v 4.8 q -6.8,0.4 -9.2,2.000003 -2,1.2 -2,3.2 0,0.8 5.2,7.2 5.2,6.4 13.6,16 8.4,9.6 18.8,21.6 10.8,11.6 21.6,23.6 10.8,11.6 20.8,22.4 10,10.4 17.2,18 v -106.8 q 0,-6.800003 -8.4,-7.200003 v -4.8 h 73.2 v 4.8 q -7.6,0.8 -9.6,2.800003 -1.6,1.6 -1.6,4.4 v 186.4 q 0,2.8 1.6,4.8 2,1.6 9.6,2.4 v 4.8 h -76 v -4.8 q 5.6,0 7.2,-1.2 2,-1.2 2,-3.2 0,-1.2 -1.2,-2.8 -1.2,-2 -5.2,-6.4 -4,-4.4 -12,-12.4 -7.6,-8.4 -20.4,-22 -12.8,-14 -31.6,-34.4 -18.8,-20.8 -45.2,-50.4 v 125.6 q 0,2.8 1.6,4.8 2,1.6 9.6,2.4 v 4.8 h -76 v -4.8 q 7.6,-0.8 9.2,-2.4 2,-2 2,-4.8 z"
       style="display:inline"
       id="path6508" />
    <path
       d="m 1861.7944,91.650867 q 25.6,0 48,7.2 22.8,6.800003 39.6,20.400003 17.2,13.6 27.2,33.6 10,20 10,46.4 0,26.4 -10,46.4 -10,20 -27.2,33.6 -16.8,13.6 -39.6,20 -22.4,6.4 -48,6.4 -25.6,0 -48.4,-6.4 -22.4,-6.4 -39.6,-20 -16.8,-13.6 -26.8,-33.6 -10,-20 -10,-46.4 0,-26.4 10,-46.4 10,-20 26.8,-33.6 17.2,-13.6 39.6,-20.400003 22.8,-7.2 48.4,-7.2 z m 0,48.800003 q -13.2,0 -25.2,4 -11.6,4 -20.8,11.6 -8.8,7.2 -14.4,18.4 -5.2,10.8 -5.2,24.8 0,14 5.2,25.2 5.6,10.8 14.4,18.4 9.2,7.2 20.8,11.2 12,4 25.2,4 13.2,0 24.8,-4 12,-4 20.8,-11.2 9.2,-7.6 14.4,-18.4 5.6,-11.2 5.6,-25.2 0,-14 -5.6,-24.8 -5.2,-11.2 -14.4,-18.4 -8.8,-7.6 -20.8,-11.6 -11.6,-4 -24.8,-4 z"
       style="display:inline"
       id="path6510" />
    <path
       d="m 2076.1937,299.65087 q 3.2,-0.8 5.6,-1.6 2.4,-1.2 2.4,-5.2 0,-0.8 -2.8,-8.8 -2.4,-8 -6.8,-20.8 -4.4,-13.2 -10,-29.6 -5.2,-16.8 -11.2,-34 -5.6,-17.2 -11.2,-34 -5.6,-16.8 -10,-30 -4.4,-13.6 -7.2,-22.4 -2.8,-8.8 -3.2,-10 -1.2,-4.400003 -4,-4.400003 v -4.8 h 73.2 v 4.8 q -3.6,0.8 -6,2.000003 -2.4,0.8 -2.4,4 0,1.2 2,8.4 2.4,7.2 6,18.4 3.6,11.2 8,24.8 4.4,13.2 8.8,26.8 4.4,13.2 8,25.2 4,12 6.4,20 h 0.8 q 2.4,-7.6 6,-19.2 3.6,-12 7.6,-25.2 4.4,-13.6 8.4,-27.2 4.4,-13.6 7.6,-24.8 3.6,-11.2 5.6,-18.4 2,-7.6 2,-8.8 0,-3.2 -3.2,-4 -2.8,-1.200003 -5.2,-2.000003 v -4.8 h 95.2 v 4.8 q -2.8,0.8 -4.8,2.000003 -2,0.8 -2,4 0,0.4 2,8 2,7.6 5.2,19.2 3.2,11.6 7.2,26 4,14 7.6,27.6 3.6,13.2 6.8,24.8 3.2,11.6 4.8,18 h 0.8 q 1.2,-4.8 4.4,-15.2 3.6,-10.8 8,-24 4.4,-13.2 8.8,-27.2 4.8,-14.4 8.8,-26.4 4,-12 6.4,-20.4 2.8,-8.4 2.8,-9.6 0,-3.6 -2.8,-4.8 -2.4,-1.200003 -5.6,-2.000003 v -4.8 h 67.2 v 4.8 q -3.2,0.4 -4.8,2.400003 -1.2,2 -2,5.2 -0.4,1.2 -3.2,10 -2.8,8.4 -7.2,21.6 -4.4,12.8 -10,29.6 -5.6,16.4 -11.6,33.6 -6,16.8 -11.6,33.2 -5.2,16.4 -9.6,29.6 -4.4,12.8 -7.2,21.2 -2.4,8 -2.4,8.8 0,3.6 2.4,4.4 2.8,0.8 5.6,1.2 v 4.8 h -83.2 v -4.8 q 8,-1.2 8,-5.6 0,-4.8 -4,-19.6 -4,-15.2 -10,-35.2 -5.6,-20 -12.4,-42.4 -6.4,-22.8 -12,-42.8 h -0.8 q -4.8,17.6 -12,40.8 -7.2,22.8 -14,44 -6.8,21.2 -11.6,36.8 -4.8,15.6 -4.8,18.4 0,5.6 8.8,5.6 v 4.8 h -86.4 z"
       style="display:inline"
       id="path6512" />
    <path
       d="m 2573.793,227.65087 q -0.8,-4 -3.6,-6.4 -2.4,-2.8 -8.4,-2.8 h -74.4 v 37.2 h 128.4 q 3.2,0 4.8,-2 1.6,-2.4 2.4,-10 h 4.8 v 68.4 h -4.8 q -0.8,-5.2 -2.4,-6.4 -1.6,-1.2 -4.8,-1.2 h -199.6 v -4.8 q 7.6,-0.8 9.2,-2.4 2,-2 2,-4.8 v -186.4 q 0,-2.8 -2,-4.4 -1.6,-2.000003 -9.2,-2.800003 v -4.8 h 199.6 q 3.2,0 4.8,-2 1.6,-2.4 2.4,-9.2 h 4.8 v 69.600003 h -4.8 q -0.8,-6.8 -2.4,-8.8 -1.6,-2.4 -4.8,-2.4 h -128.4 v 33.2 h 74.4 q 6,0 8.4,-2.4 2.8,-2.8 3.6,-6.8 h 4.8 v 62.4 z"
       style="display:inline"
       id="path6514" />
  </g>
</svg>
