<?xml version="1.0" encoding="UTF-8" standalone="no"?>
<svg
   viewBox="0 0 2925 375"
   width="468"
   height="60"
   version="1.1"
   id="svg6"
   sodipodi:docname="fairknowe.svg"
   inkscape:version="1.2 (dc2aeda, 2022-05-15)"
   inkscape:export-filename="fki_icon.png"
   inkscape:export-xdpi="96"
   inkscape:export-ydpi="96"
   xmlns:inkscape="http://www.inkscape.org/namespaces/inkscape"
   xmlns:sodipodi="http://sodipodi.sourceforge.net/DTD/sodipodi-0.dtd"
   xmlns="http://www.w3.org/2000/svg"
   xmlns:svg="http://www.w3.org/2000/svg">
  <defs
     id="defs10" />
  <sodipodi:namedview
     id="namedview8"
     pagecolor="#ffffff"
     bordercolor="#000000"
     borderopacity="0.25"
     inkscape:showpageshadow="2"
     inkscape:pageopacity="0.0"
     inkscape:pagecheckerboard="true"
     inkscape:deskcolor="#d1d1d1"
     showgrid="false"
     inkscape:zoom="1.0884262"
     inkscape:cx="172.26707"
     inkscape:cy="44.55975"
     inkscape:window-width="1480"
     inkscape:window-height="751"
     inkscape:window-x="0"
     inkscape:window-y="25"
     inkscape:window-maximized="0"
     inkscape:current-layer="svg6" />
  <g
     aria-label="FAIRKNOWE"
     id="text1736"
     style="font-size:466.667px;font-family:Copperplate;-inkscape-font-specification:'Copperplate, Normal';fill:#ffffff;stroke:#ffffff;stroke-width:1.5625">
    <path
       d="m 288.03579,120.75616 q 0,-5.13333 -4.2,-7.46667 -3.73333,-2.8 -13.53334,-2.8 H 119.10234 v 57.86671 h 91.46673 q 9.33334,0 14.46668,-1.86667 5.13334,-1.86667 5.13334,-8.40001 h 8.4 v 67.20005 h -8.4 q 0,-10.73334 -5.13334,-13.53334 -5.13334,-3.26667 -14.46668,-3.26667 h -91.46673 v 90.5334 q 0,4.2 3.73334,6.53333 4.2,1.86667 10.26667,1.86667 v 8.40001 H 53.768964 v -8.40001 q 12.133342,0 12.133342,-8.4 V 87.156141 q 0,-8.400006 -12.133342,-8.400006 V 70.35613 H 270.30245 q 9.80001,0 13.53334,-2.800002 4.2,-3.266669 4.2,-8.400006 h 8.40001 v 61.600038 z"
       id="path1793" />
    <path
       d="m 493.83507,220.6229 -39.20003,-86.80006 -43.8667,86.80006 z m -175.93346,86.80006 q 6.06667,-0.93333 9.33334,-6.06667 3.73334,-5.13334 7,-11.66667 l 86.3334,-181.53346 q 3.26667,-6.06667 5.6,-11.200012 2.8,-5.133337 2.8,-8.866673 0,-4.66667 -3.26667,-6.533338 -3.26666,-1.866668 -7,-2.800002 V 70.35613 h 78.86672 v 8.400005 q -3.26667,0.933334 -6.53334,2.800002 -3.26667,1.400001 -3.26667,6.533338 0,3.733336 1.40001,7.466672 1.86666,3.733336 5.13333,9.800003 l 97.06674,189.93347 q 2.33333,5.13334 6.06667,7.46667 4.2,2.33334 9.33334,4.66667 v 8.40001 h -82.13339 v -8.40001 q 1.86666,0 4.66667,-1.4 2.8,-1.4 2.8,-4.2 0,-4.66667 -3.73334,-12.13334 L 510.63508,255.15626 H 396.76833 l -16.80001,33.13335 q -4.66667,9.80001 -4.66667,14.00001 0,5.13334 8.86667,5.13334 v 8.40001 h -66.26671 z"
       id="path1795" />
    <path
       d="m 658.10172,307.42296 q 12.13334,0 12.13334,-8.4 V 87.156141 q 0,-8.400006 -12.13334,-8.400006 V 70.35613 h 77.46672 v 8.400005 q -12.13334,0 -12.13334,8.400006 V 299.02296 q 0,8.4 12.13334,8.4 v 8.40001 h -77.46672 z"
       id="path1797" />
    <path
       d="m 959.56784,179.55621 q 16.80001,0 28.00002,-2.33334 11.20001,-2.8 17.73334,-7.46667 6.5333,-4.66667 9.3333,-10.73334 2.8,-6.53334 2.8,-14.00001 0,-7.46667 -2.8,-13.53334 -2.8,-6.53334 -9.3333,-11.20001 -6.53333,-4.66667 -17.73334,-7.00001 -11.20001,-2.8 -28.00002,-2.8 h -80.73339 v 69.06672 z M 971.70118,70.35613 q 22.40002,0 40.60002,4.200003 18.2,3.733336 31.2667,12.600008 13.0667,8.400006 20.0667,22.400019 7,13.53334 7,33.60002 0,30.80002 -18.2,47.13337 -18.2,16.33334 -49.0001,21.93335 l 62.0667,88.66672 q 3.2667,4.66667 7.4667,5.60001 4.6667,0.93333 8.4,0.93333 v 8.40001 h -87.2667 v -8.40001 q 4.2,0 7,-1.4 3.2667,-1.4 3.2667,-3.73334 0,-2.33333 -1.8667,-5.13333 -1.8667,-3.26667 -5.6,-8.40001 l -51.33337,-72.80005 h -66.73338 v 83.06673 q 0,4.2 2.8,6.53333 3.26667,1.86667 11.20001,1.86667 v 8.40001 h -80.73339 v -8.40001 q 13.53334,0 13.53334,-8.4 V 87.156141 q 0,-8.400006 -13.53334,-8.400006 V 70.35613 Z"
       id="path1799" />
    <path
       d="m 1209.2338,299.02296 q 0,4.2 2.8,6.53333 2.8,1.86667 6.5333,1.86667 v 8.40001 h -72.8 v -8.40001 q 10.2667,0 10.2667,-8.4 V 87.156141 q 0,-8.400006 -10.2667,-8.400006 V 70.35613 h 72.8 v 8.400005 q -3.7333,0 -6.5333,2.333335 -2.8,1.866668 -2.8,6.066671 v 88.666729 l 96.6001,-76.06672 q 6.5333,-5.600004 10.2666,-8.866673 3.7334,-3.733336 3.7334,-6.066671 0,-3.266669 -2.3334,-4.66667 -1.8666,-1.400001 -4.6666,-1.400001 V 70.35613 h 98 v 8.400005 q -8.4,0 -16.8,7.000005 l -107.3334,85.40006 98.0001,113.40008 q 6.0666,7 14,14.00001 8.4,6.53334 16.3333,8.86667 v 8.40001 h -86.3334 v -8.40001 q 6.0667,0 6.0667,-3.26667 0,-2.33333 -6.5333,-10.26667 l -79.8001,-91.9334 -39.2,30.33336 z"
       id="path1801" />
    <path
       d="m 1465.4339,307.42296 q 8.8667,0 8.8667,-8.4 V 87.156141 q 0,-8.400006 -8.8667,-8.400006 V 70.35613 h 79.8001 v 8.400005 q -3.7334,0 -3.7334,4.66667 0,3.733336 9.3334,13.066676 L 1684.7674,235.55624 V 87.156141 q 0,-8.400006 -12.1333,-8.400006 V 70.35613 h 70.4667 v 8.400005 q -8.8667,0 -8.8667,8.400006 V 299.02296 q 0,8.4 8.8667,8.4 v 8.40001 h -75.6001 v -8.40001 q 6.0667,0 6.0667,-4.2 0,-3.26667 -7.4667,-10.73334 L 1523.7673,144.08951 v 154.93345 q 0,8.4 10.7333,8.4 v 8.40001 h -69.0667 z"
       id="path1803" />
    <path
       d="m 1967.5676,110.48949 q -17.7334,0 -35.4667,5.6 -17.7333,5.60001 -32.2,16.33335 -14,10.26667 -22.8667,25.66668 -8.8667,15.40001 -8.8667,35.00003 0,19.60001 8.8667,35.00002 8.8667,15.40001 22.8667,26.13335 14.4667,10.26668 32.2,15.86668 17.7333,5.60001 35.4667,5.60001 17.7333,0 35.4667,-5.60001 17.7333,-5.6 31.7333,-15.86668 14.4667,-10.73334 23.3334,-26.13335 8.8667,-15.40001 8.8667,-35.00002 0,-19.60002 -8.8667,-35.00003 -8.8667,-15.40001 -23.3334,-25.66668 -14,-10.73334 -31.7333,-16.33335 -17.7334,-5.6 -35.4667,-5.6 z m 0,-42.933362 q 25.6667,0 52.2667,7.933339 26.6,7.466671 48.5334,22.866682 21.9333,15.400011 35.9333,39.200031 14,23.33335 14,55.53337 0,32.20002 -14,56.00004 -14,23.33335 -35.9333,38.73336 -21.9334,15.40001 -48.5334,22.40001 -26.6,7.00001 -52.2667,7.00001 -25.6667,0 -52.2667,-7.00001 -26.6,-7 -48.5334,-22.40001 -21.9333,-15.40001 -35.9333,-38.73336 -14.0001,-23.80002 -14.0001,-56.00004 0,-32.20002 14.0001,-55.53337 14,-23.80002 35.9333,-39.200031 21.9334,-15.400011 48.5334,-22.866682 26.6,-7.933339 52.2667,-7.933339 z"
       id="path1805" />
    <path
       d="m 2235.9011,78.756135 q -7,0 -7,8.866673 0,2.333335 0.4666,5.600004 0.9334,3.266669 3.7334,10.733338 l 49.9333,129.73343 h 0.9334 l 49.4667,-131.60009 q 2.3333,-6.066676 2.8,-8.866678 0.9333,-3.266669 0.9333,-5.600004 0,-8.866673 -6.0667,-8.866673 V 70.35613 h 79.8001 v 8.400005 q -3.2667,0 -4.6667,2.333335 -1.4,2.333335 -1.4,5.133337 0,4.66667 4.6667,15.866683 l 49.9334,131.60009 h 0.9333 l 50.4,-134.400097 q 3.2667,-7.000005 3.2667,-12.600009 0,-2.800002 -2.3333,-5.133337 -2.3334,-2.800002 -5.6,-2.800002 V 70.35613 h 69.0667 v 8.400005 q -5.1334,0 -7.9334,5.600004 -2.3333,5.600004 -5.6,14.00001 l -67.2,178.266791 q -2.8,7.46667 -5.1333,13.06668 -1.8667,5.6 -1.8667,9.33334 0,3.26666 2.3333,6.06667 2.3334,2.33333 6.5334,2.33333 v 8.40001 h -73.7334 v -8.40001 q 2.8,-0.93333 5.6,-2.8 3.2667,-1.86667 3.2667,-5.13334 0,-3.73333 -1.8667,-8.4 -1.4,-4.66667 -5.1334,-13.06668 l -53.6667,-137.66676 h -0.9333 l -50.8667,134.86676 q -7,18.20001 -7,22.86668 0,7.46667 6.0667,9.33334 v 8.40001 h -72.3334 v -8.40001 q 2.8,0 5.6,-1.4 2.8,-1.4 2.8,-4.66667 0,-3.73334 -1.8667,-7.93334 -1.4,-4.2 -3.2666,-8.86667 L 2174.301,91.822811 q -1.8666,-5.133337 -4.2,-8.400006 -1.8666,-3.733336 -6.5333,-4.66667 V 70.35613 h 72.3334 z"
       id="path1807" />
    <path
       d="m 2860.3006,120.75616 q 0,-5.13333 -4.2,-7.46667 -3.7333,-2.8 -13.5334,-2.8 h -151.2001 v 57.86671 h 91.4668 q 9.3333,0 14.4666,-2.33334 5.1334,-2.8 5.1334,-13.53334 h 8.4 v 72.80005 h -8.4 q 0,-10.73334 -5.1334,-13.53334 -5.1333,-3.26667 -14.4666,-3.26667 h -91.4668 v 64.40004 h 155.8668 q 7,0 11.2,-3.26666 4.6667,-3.26667 4.6667,-8.86668 h 8.4 v 63.93338 h -8.4 q 0,-7 -4.6667,-7.93334 -4.2,-0.93333 -11.2,-0.93333 h -217.4668 v -8.40001 q 3.2667,0 5.6,-1.86667 2.8,-2.33333 2.8,-6.53333 V 87.156141 q 0,-4.200003 -2.8,-6.066671 -2.3333,-2.333335 -5.6,-2.333335 V 70.35613 h 212.8001 q 9.8001,0 13.5334,-2.800002 4.2,-3.266669 4.2,-8.400006 h 8.4 v 61.600038 z"
       id="path1809" />
  </g>
</svg>
