<?xml version="1.0" encoding="UTF-8" standalone="no"?>
<!-- Created with Inkscape (http://www.inkscape.org/) -->

<svg
   width="120mm"
   height="120mm"
   viewBox="-60 -60 120 120"
   sodipodi:docname="fki_logo_white.svg"
   version="1.1"
   id="svg1405"
   inkscape:version="1.2 (dc2aeda, 2022-05-15)"
   inkscape:export-filename="fki_logo.png"
   inkscape:export-xdpi="96"
   inkscape:export-ydpi="96"
   xmlns:inkscape="http://www.inkscape.org/namespaces/inkscape"
   xmlns:sodipodi="http://sodipodi.sourceforge.net/DTD/sodipodi-0.dtd"
   xmlns="http://www.w3.org/2000/svg"
   xmlns:svg="http://www.w3.org/2000/svg"
   xmlns:rdf="http://www.w3.org/1999/02/22-rdf-syntax-ns#"
   xmlns:cc="http://creativecommons.org/ns#"
   xmlns:dc="http://purl.org/dc/elements/1.1/">
  <defs
     id="defs1407" />
  <sodipodi:namedview
     pagecolor="#ffffff"
     bordercolor="#666666"
     borderopacity="1.0"
     inkscape:pageopacity="0.0"
     inkscape:pageshadow="2"
     inkscape:zoom="1"
     inkscape:cx="119.5"
     inkscape:cy="241.5"
     inkscape:document-units="mm"
     inkscape:current-layer="Template"
     showgrid="false"
     units="mm"
     showguides="true"
     inkscape:guide-bbox="true"
     inkscape:snap-global="true"
     inkscape:snap-bbox="true"
     inkscape:snap-bbox-midpoints="true"
     inkscape:window-width="1480"
     inkscape:window-height="723"
     inkscape:window-x="0"
     inkscape:window-y="25"
     inkscape:window-maximized="0"
     inkscape:bbox-paths="true"
     inkscape:bbox-nodes="true"
     inkscape:snap-bbox-edge-midpoints="true"
     inkscape:snap-grids="true"
     id="namedview1395"
     inkscape:showpageshadow="2"
     inkscape:pagecheckerboard="0"
     inkscape:deskcolor="#d1d1d1">
    <sodipodi:guide
       orientation="1,0"
       position="226.771653543,226.771653543"
       id="guide2827"
       inkscape:locked="false" />
    <sodipodi:guide
       orientation="0,1"
       position="226.771653543,226.771653543"
       id="guide2829"
       inkscape:locked="false" />
    <inkscape:grid
       type="xygrid"
       id="grid3072"
       empspacing="10"
       visible="true"
       enabled="true"
       snapvisiblegridlinesonly="true"
       units="mm"
       dotted="false"
       spacingx="0.1mm"
       spacingy="0.1mm" />
  </sodipodi:namedview>
  <metadata
     id="metadata2822">
    <rdf:RDF>
      <cc:Work
         rdf:about="">
        <dc:format>image/svg+xml</dc:format>
        <dc:type
           rdf:resource="http://purl.org/dc/dcmitype/StillImage" />
      </cc:Work>
    </rdf:RDF>
  </metadata>
  <g
     inkscape:label="Layer 1"
     inkscape:groupmode="layer"
     id="Template"
     style="fill:none;stroke:black;stroke-width:0.05">
    <g
       id="g2088"
       sodipodi:insensitive="true">
      <g
         aria-label="information delivery systems"
         transform="rotate(147.6,-0.01762326,0.00886132)"
         id="text1690"
         style="font-weight:300;font-size:17.2861px;font-family:Copperplate;-inkscape-font-specification:'Copperplate, Light';fill:#ffffff;stroke:none;stroke-width:2;stroke-opacity:0.7">
        <path
           d="m 42.602772,1.9155616 q -0.01851,0.2759578 0.0631,0.3507305 0.0977,0.093177 0.390906,0.1128402 l 6.20905,0.4163999 q 0.293205,0.019663 0.385225,-0.06079 0.108111,-0.062049 0.126617,-0.3380072 l 0.206969,0.01388 -0.129547,1.9317042 -0.206968,-0.01388 q 0.01851,-0.2759577 -0.0792,-0.3691345 -0.08161,-0.074773 -0.374815,-0.094436 L 42.985068,3.4484685 q -0.293205,-0.019663 -0.401316,0.042386 -0.09202,0.080453 -0.110527,0.3564112 l -0.206968,-0.01388 0.129547,-1.9317042 z"
           id="path4810" />
        <path
           d="m 42.199846,7.4151201 q -0.07404,0.2664817 -0.01391,0.3728963 0.07216,0.1276975 0.355301,0.2063702 l 5.995839,1.6660095 q 0.283137,0.078673 0.39418,0.00188 0.123069,-0.055509 0.197114,-0.3219905 l 0.199862,0.055534 -0.67566,2.4316457 -0.199861,-0.05553 q 0.07404,-0.266482 0.05185,-0.380296 -0.01017,-0.09253 -0.07679,-0.111043 -0.04997,-0.01388 -0.334043,0.104534 l -6.433874,3.074288 5.146429,1.429991 q 0.283137,0.07867 0.394179,0.0019 0.12307,-0.05551 0.197115,-0.32199 l 0.199861,0.05553 -0.509059,1.832063 -0.199861,-0.05553 q 0.07405,-0.266482 0.0019,-0.394179 -0.06014,-0.106415 -0.343273,-0.185088 l -5.99584,-1.666009 q -0.283137,-0.07867 -0.406207,-0.02316 -0.111042,0.07679 -0.185087,0.343273 l -0.199861,-0.05553 0.620126,-2.231785 0.199861,0.05553 q -0.09256,0.333102 -0.07776,0.408978 0.0148,0.07588 0.09807,0.09901 0.08328,0.02314 0.151753,-0.0296 0.0805,-0.03145 0.203573,-0.08696 l 6.689269,-3.218615 -5.362945,-1.4901533 q -0.283137,-0.078673 -0.406207,-0.023164 -0.111042,0.076792 -0.185087,0.3432734 l -0.199861,-0.055534 0.509058,-1.8320621 z"
           id="path4812" />
        <path
           d="m 40.278833,27.564409 q 0.194854,0.111941 0.312852,0.08005 0.132987,-0.02328 0.26215,-0.248109 l 2.5316,-4.406686 -2.00849,-1.153859 -1.696344,2.95278 q -0.129163,0.224831 -0.09727,0.342829 0.04688,0.126609 0.211754,0.221328 l -0.103331,0.179865 -1.468895,-0.843867 0.103331,-0.179864 q 0.149887,0.08611 0.267885,0.05422 0.117998,-0.03189 0.247161,-0.25672 l 1.696344,-2.952779 -2.308264,-1.326076 q -0.254808,-0.146385 -0.387795,-0.123107 -0.117998,0.03189 -0.264383,0.286698 l -0.179865,-0.103331 0.998863,-1.738692 0.179865,0.10333 q -0.146385,0.254809 -0.114496,0.372807 0.04688,0.126609 0.301686,0.272994 l 5.395942,3.099918 q 0.254808,0.146385 0.372806,0.114496 0.124376,-0.0083 0.26215,-0.24811 l 0.179865,0.103331 -3.280746,5.710705 q -0.129164,0.224831 -0.09727,0.342829 0.04688,0.126609 0.241731,0.23855 l -0.103331,0.179865 -1.558827,-0.895532 z"
           id="path4814" />
        <path
           d="m 35.688387,33.820692 q 0.511262,-0.539545 0.764288,-1.133278 0.241135,-0.581185 0.237897,-1.155792 -0.0032,-0.574608 -0.237646,-1.10631 -0.234406,-0.531703 -0.673571,-0.947847 -0.451713,-0.428034 -0.995255,-0.6335 -0.543542,-0.205466 -1.117492,-0.17779 -0.57395,0.02768 -1.15387,0.287836 -0.579262,0.284597 -1.090524,0.824142 -0.511262,0.539546 -0.752398,1.120731 -0.240477,0.605622 -0.237239,1.180229 0.0032,0.574608 0.237645,1.106311 0.234407,0.531702 0.68612,0.959736 0.439164,0.416144 0.982707,0.62161 0.543542,0.205466 1.117492,0.17779 0.573949,-0.02768 1.153211,-0.312273 0.567373,-0.27205 1.078635,-0.811595 z m 0.702664,0.66583 q -0.68961,0.727759 -1.462398,1.09093 -0.784678,0.375719 -1.566016,0.421204 -0.768791,0.05738 -1.485368,-0.216798 -0.728467,-0.261627 -1.318203,-0.820448 -0.589736,-0.558822 -0.890169,-1.272161 -0.312324,-0.700791 -0.308934,-1.483445 0.01594,-0.770765 0.36145,-1.562627 0.34617,-0.767425 1.03578,-1.495184 0.68961,-0.727759 1.449192,-1.127258 0.760241,-0.375061 1.529032,-0.432436 0.781338,-0.04548 1.509805,0.216141 0.716578,0.274174 1.306313,0.832996 0.589736,0.558821 0.902059,1.259613 0.300434,0.713338 0.284497,1.484103 -0.0034,0.782654 -0.324465,1.573859 -0.332966,0.803752 -1.022575,1.531511 z"
           id="path4816" />
        <path
           d="m 24.854007,35.304062 q -0.15718,-0.248294 -0.271078,-0.298944 -0.119258,-0.0268 -0.352946,0.121137 l -0.110952,-0.175266 1.635821,-1.035545 0.110951,0.175266 q -0.233688,0.147935 -0.245881,0.257947 -0.01755,0.133863 0.139629,0.382157 l 3.328538,5.257996 q 0.157181,0.248294 0.276438,0.275092 0.113898,0.05065 0.347587,-0.09729 l 0.110951,0.175267 -4.469296,2.829257 q -0.963966,0.610232 -1.707248,0.405627 -0.743283,-0.204605 -1.270301,-1.037121 -0.536265,-0.847121 -0.346265,-1.581158 0.184639,-0.710184 1.013269,-1.27566 L 19.883297,38.24615 q -0.203945,-0.09594 -0.313956,-0.108132 -0.100766,0.0024 -0.21761,0.07638 l -0.110951,-0.175267 1.577399,-0.998561 0.110951,0.175266 q -0.160661,0.101706 -0.180626,0.134803 -0.02533,0.05695 0.0209,0.129977 0.04623,0.07303 0.136276,0.118317 0.09005,0.04529 0.246287,0.130511 l 2.855218,1.343151 2.307676,-1.460858 z m -1.13235,5.094971 q -0.525799,0.332854 -0.596947,0.705232 -0.07115,0.372378 0.233968,0.854361 0.332853,0.525799 0.714477,0.611553 0.376264,0.109605 1.033514,-0.306462 l 2.964925,-1.876926 -1.238956,-1.957143 z"
           id="path4818" />
        <path
           d="m 9.7110597,41.609966 q -0.2648966,0.07953 -0.3228237,0.187163 -0.069512,0.12916 0.014988,0.410613 l 1.5607722,5.198595 0.03311,-0.0099 1.341429,-6.41284 4.651855,4.613479 0.03311,-0.0099 -1.560771,-5.198595 q -0.0845,-0.281453 -0.197105,-0.355936 -0.124189,-0.05296 -0.389085,0.02657 l -0.05965,-0.198672 1.821164,-0.546767 0.05965,0.198672 q -0.264896,0.07953 -0.322823,0.187163 -0.06951,0.12916 0.01499,0.410613 l 1.78942,5.960172 q 0.0845,0.281453 0.208689,0.334409 0.112604,0.07448 0.377501,-0.005 l 0.05965,0.198672 -2.218509,0.666062 -0.05965,-0.198672 q 0.397345,-0.119295 0.342668,-0.301411 -0.0099,-0.03311 -0.163954,-0.185405 l -3.840382,-3.774206 -1.126429,5.265389 q -0.04466,0.21194 -0.03472,0.245052 0.05468,0.182117 0.452022,0.06282 l 0.05965,0.198672 -2.2516208,0.676003 -0.059647,-0.198672 q 0.2317841,-0.06959 0.2847411,-0.193778 0.04137,-0.102662 -0.04313,-0.384115 L 8.3767497,42.515919 q -0.0845,-0.281452 -0.1805482,-0.360906 -0.1076332,-0.05793 -0.3394177,0.01166 l -0.059647,-0.198672 1.854276,-0.556708 z"
           id="path4820" />
        <path
           d="m 3.2431091,45.562726 -3.36913119,0.105723 1.85889189,3.573536 z m 2.5836907,-3.090337 q -0.2764415,0.0087 -0.3590344,0.132329 -0.09987,0.124196 -0.1802945,0.31696 L 2.7538744,49.26183 q -0.079882,0.210042 -0.077171,0.29643 0.00271,0.08639 0.1085451,0.152246 0.088557,0.0664 0.3309852,0.07609 l 0.00542,0.172776 -2.79897055,0.08783 -0.006506,-0.207331 q 0.13822077,-0.0043 0.27481504,-0.06051 0.11985884,-0.03835 0.11606369,-0.159293 -0.002711,-0.08639 -0.0399768,-0.171692 -0.0545436,-0.08476 -0.0918096,-0.170065 L -2.5765461,43.081975 q -0.055628,-0.119316 -0.1630887,-0.237006 -0.1069186,-0.100413 -0.3833601,-0.09174 l -0.00651,-0.207331 2.17697709,-0.06831 0.006506,0.207331 q -0.31099677,0.0098 -0.41303577,0.06484 -0.1020391,0.05508 -0.098786,0.158751 0.0038,0.120943 0.041061,0.206247 0.037266,0.0853 0.074532,0.170607 l 0.75392327,1.429089 4.19845583,-0.131746 0.5462337,-1.331531 q 0.064231,-0.157667 0.1462816,-0.298598 0.064773,-0.14039 0.062062,-0.226778 -0.00325,-0.103665 -0.108545,-0.152245 -0.1052921,-0.04858 -0.364456,-0.04045 l -0.00651,-0.207331 1.9350907,-0.06072 z"
           id="path4822" />
        <path
           d="m -12.488641,47.174182 q -0.04076,0.220992 0.02856,0.321666 0.06619,0.117672 0.321176,0.164701 l 2.6349054,0.485968 1.0785355,-5.84779 q 0.0533,-0.28899 0.00411,-0.403527 -0.069321,-0.100674 -0.3413109,-0.150838 l 0.037623,-0.203993 1.9719293,0.363693 -0.037623,0.203992 q -0.2719902,-0.05016 -0.3556642,0.02229 -0.1038086,0.08632 -0.1571083,0.375309 l -1.0785355,5.847791 2.6349056,0.485968 q 0.2549909,0.04703 0.3587995,-0.03929 0.1006733,-0.06932 0.1414319,-0.290313 l 0.2039927,0.03762 -0.3260688,1.767936 -0.2039927,-0.03762 q 0.040759,-0.220992 -0.025427,-0.338665 -0.069321,-0.100673 -0.3243115,-0.147702 l -6.3917713,-1.178865 q -0.254991,-0.04703 -0.355664,0.02229 -0.103809,0.08632 -0.144567,0.307312 l -0.203993,-0.03762 0.326069,-1.767936 z"
           id="path4824" />
        <path
           d="m -13.829171,40.352737 q -0.259509,-0.09566 -0.354279,-0.03847 -0.116968,0.06742 -0.218603,0.343152 l -2.152281,5.838953 q -0.101635,0.275728 -0.05043,0.386717 0.02901,0.12123 0.288514,0.216887 l -0.07174,0.194632 -1.816563,-0.669598 0.07174,-0.194632 q 0.259509,0.09566 0.376477,0.02823 0.09477,-0.05718 0.196406,-0.332911 l 2.15228,-5.838953 q 0.101636,-0.275728 0.07263,-0.396958 -0.0512,-0.11099 -0.310713,-0.206647 l 0.07174,-0.194631 1.816563,0.669598 z"
           id="path4826" />
        <path
           d="m -25.518782,42.034401 q 0.635169,0.386083 1.268889,0.508309 0.618948,0.113247 1.17997,-0.01101 0.561022,-0.124253 1.031388,-0.465443 0.470366,-0.341189 0.784619,-0.858186 0.323232,-0.531769 0.409543,-1.106404 0.08631,-0.574634 -0.06169,-1.129863 -0.148003,-0.555229 -0.524528,-1.067303 -0.400274,-0.506281 -1.035442,-0.892363 -0.635169,-0.386083 -1.254117,-0.49933 -0.642699,-0.107454 -1.20372,0.0168 -0.561022,0.124253 -1.031388,0.465442 -0.470367,0.34119 -0.793599,0.872958 -0.314253,0.516998 -0.400564,1.091632 -0.08631,0.574635 0.06169,1.129864 0.148003,0.555229 0.548278,1.06151 0.385503,0.497302 1.020671,0.883384 z m -0.502805,0.827196 q -0.856738,-0.520762 -1.374604,-1.199665 -0.532638,-0.687882 -0.741754,-1.44209 -0.218095,-0.739436 -0.101082,-1.497699 0.102241,-0.767241 0.524238,-1.461495 0.421997,-0.694254 1.056007,-1.138263 0.619238,-0.452988 1.385031,-0.614604 0.756815,-0.146845 1.603706,0.02404 0.82314,0.176677 1.679879,0.697439 0.856738,0.520763 1.407333,1.179102 0.526845,0.664131 0.74494,1.403568 0.209116,0.754208 0.106875,1.521449 -0.117012,0.758263 -0.53901,1.452516 -0.421997,0.694254 -1.041235,1.147242 -0.63401,0.444009 -1.390824,0.590854 -0.765794,0.161616 -1.606892,0.01448 -0.855869,-0.156113 -1.712608,-0.676876 z"
           id="path4828" />
        <path
           d="m -27.859754,32.5403 q -0.191587,-0.199472 -0.313794,-0.201936 -0.146647,-0.003 -0.358587,0.200605 l -4.488129,4.310729 q -0.211939,0.203562 -0.202429,0.338235 -0.01493,0.134181 0.176657,0.333653 l -0.149604,0.143691 -1.74824,-1.820185 0.149604,-0.143691 q 0.191588,0.199472 0.300835,0.238352 0.0848,0.03839 0.134673,-0.0095 0.0374,-0.03592 0.08022,-0.340699 l 0.632224,-7.102554 -3.852311,3.700042 q -0.211939,0.203562 -0.202429,0.338235 -0.01493,0.134181 0.176657,0.333653 l -0.149604,0.143691 -1.317167,-1.371372 0.149604,-0.143691 q 0.191588,0.199472 0.338236,0.202429 0.122206,0.0025 0.334146,-0.201099 l 4.488128,-4.310728 q 0.21194,-0.203562 0.226871,-0.337743 -0.0095,-0.134673 -0.201099,-0.334146 l 0.149605,-0.143691 1.604549,1.670581 -0.149605,0.143691 q -0.239485,-0.24934 -0.312316,-0.27526 -0.07283,-0.02592 -0.135166,0.03395 -0.06234,0.05987 -0.05184,0.145662 -0.01394,0.0853 -0.02888,0.219479 l -0.638137,7.395849 4.014381,-3.855707 q 0.21194,-0.203562 0.226871,-0.337743 -0.0095,-0.134673 -0.201099,-0.334146 l 0.149605,-0.143691 1.317167,1.371373 z"
           id="path4830" />
        <path
           d="m -44.59279,21.403761 q -0.272858,0.109107 -0.321021,0.221449 -0.07063,0.102711 0.03206,0.359518 l -0.192606,0.07702 -1.553162,-3.884219 q -0.378663,-0.946979 -0.38178,-1.746256 -0.0031,-0.799278 0.305111,-1.425182 0.28576,-0.635536 0.844345,-1.100913 0.558585,-0.465378 1.312958,-0.767025 0.738323,-0.295229 1.479827,-0.349712 0.725454,-0.04806 1.386674,0.208809 0.638751,0.24724 1.187584,0.828305 0.548833,0.581064 0.927497,1.528043 l 1.553162,3.884219 -0.192606,0.07702 q -0.102689,-0.256808 -0.208613,-0.288919 -0.128393,-0.04175 -0.401252,0.06736 z m 4.205674,-5.49815 q -0.301648,-0.754373 -0.715681,-1.184555 -0.420451,-0.446232 -0.901922,-0.626045 -0.50394,-0.189446 -1.027166,-0.147777 -0.545695,0.03204 -1.091412,0.250248 -0.545717,0.218213 -0.947001,0.564841 -0.423752,0.336995 -0.642084,0.815252 -0.240801,0.468624 -0.237663,1.081725 -0.0033,0.59705 0.298368,1.351423 l 0.917777,2.29522 5.264561,-2.105112 z"
           id="path4832" />
        <path
           d="m -48.498748,9.6826203 q -0.291373,0.038176 -0.365843,0.1351024 -0.09386,0.082032 -0.06242,0.3219873 l -0.205675,0.02695 -0.904998,-6.9072633 q -0.03368,-0.2570942 -0.130611,-0.331564 -0.114066,-0.072224 -0.336881,-0.043031 l -0.02695,-0.2056753 1.78252,-0.2335479 0.02695,0.2056754 q -0.222815,0.029193 -0.297285,0.1261198 -0.09161,0.099172 -0.05793,0.3562661 l 0.705135,5.3818383 2.22815,-0.2919348 -0.49629,-3.7878544 q -0.03368,-0.2570941 -0.130611,-0.3315639 -0.114066,-0.072224 -0.336881,-0.043031 l -0.02695,-0.2056754 1.782519,-0.2335478 0.02695,0.2056753 q -0.222815,0.029193 -0.297285,0.1261198 -0.09161,0.099172 -0.05792,0.3562662 l 0.496289,3.7878543 2.433825,-0.3188827 -0.729837,-5.570374 q -0.03369,-0.2570942 -0.130611,-0.331564 -0.114066,-0.072224 -0.336881,-0.043031 l -0.02695,-0.2056754 1.731101,-0.2268109 0.02695,0.2056754 q -0.222815,0.029193 -0.280145,0.1238741 -0.05733,0.094681 -0.02365,0.3517749 l 0.9297,7.0957995 -0.205675,0.026948 q -0.03144,-0.2399546 -0.12612,-0.2972848 -0.114066,-0.072224 -0.405439,-0.034048 z"
           id="path4834" />
        <path
           d="m -41.422381,-8.6346643 q -0.189089,-0.020028 -0.266952,0.058639 -0.07786,0.078667 -0.105175,0.3365161 l -0.730107,6.8931684 -0.20628,-0.021849 q 0.02913,-0.2750391 -0.04954,-0.3529025 -0.09404,-0.096874 -0.386265,-0.1278262 l -6.188381,-0.6554583 q -0.292229,-0.030952 -0.387282,0.045894 -0.110423,0.057835 -0.139554,0.3328746 l -0.20628,-0.021849 0.203921,-1.925274 0.206279,0.021849 q -0.02913,0.2750392 0.06491,0.3719132 0.07867,0.077863 0.370896,0.1088156 l 5.913341,0.6263267 0.571705,-5.3976431 q 0.02731,-0.2578492 -0.06672,-0.3547232 -0.111226,-0.098695 -0.403455,-0.129647 l 0.02185,-0.2062793 1.804944,0.1911753 z"
           id="path4836" />
        <path
           d="m -41.170638,-11.157447 q 0.07833,-0.265255 0.01502,-0.356045 -0.07499,-0.112265 -0.356827,-0.195488 l -5.968229,-1.762362 q -0.281833,-0.08322 -0.389202,-0.02481 -0.119052,0.03694 -0.19738,0.302196 l -0.198941,-0.05875 0.548291,-1.856782 0.198941,0.05875 q -0.07833,0.265255 -0.0033,0.37752 0.06331,0.09079 0.345143,0.174013 l 5.968229,1.762362 q 0.281833,0.08322 0.400886,0.04628 0.107369,-0.05842 0.185696,-0.323669 l 0.198941,0.05875 -0.54829,1.856782 z"
           id="path4838" />
        <path
           d="m -45.770864,-20.327448 0.186065,0.0917 q -0.08428,0.131908 -0.07575,0.271012 0.0085,0.139103 0.163587,0.215516 0.07753,0.03821 0.216631,0.02967 0.139104,-0.0085 0.286071,0.0061 l 5.783224,0.113548 -3.828825,-4.392164 q -0.06224,-0.06922 -0.139995,-0.146076 -0.07775,-0.07686 -0.139772,-0.107425 -0.232582,-0.11462 -0.400691,0.226501 l -0.186066,-0.0917 0.779416,-1.581558 0.186065,0.0917 q -0.09934,0.201571 0.09526,0.432371 l 4.459359,5.146139 q 0.06225,0.06922 0.147859,0.169223 0.08561,0.100005 0.163142,0.138212 0.217076,0.106979 0.36968,-0.241783 l 0.186065,0.0917 -0.886394,1.798634 -0.186065,-0.0917 q 0.137543,-0.279099 -0.002,-0.34787 -0.09303,-0.04585 -0.263147,-0.0526 -0.18562,-0.01439 -0.471691,-0.02047 l -6.618291,-0.139657 q -0.193261,0.0011 -0.324278,0.07145 -0.123375,0.05483 -0.215071,0.240892 l -0.186065,-0.0917 z"
           id="path4840" />
        <path
           d="m -40.314902,-28.637782 q -0.227753,-0.1857 -0.349357,-0.173331 -0.124077,-0.01195 -0.277006,0.175609 l -0.160767,-0.131082 4.402178,-5.399087 q 0.163853,-0.200959 0.151485,-0.322562 -0.02577,-0.132528 -0.19993,-0.274534 l 0.131082,-0.160766 1.393313,1.136046 -0.131083,0.160767 q -0.174164,-0.142006 -0.295768,-0.129638 -0.135001,0.0014 -0.298853,0.202404 l -3.429986,4.206733 1.741641,1.420057 2.414098,-2.960789 q 0.163853,-0.200959 0.151484,-0.322563 -0.02576,-0.132527 -0.199929,-0.274533 l 0.131082,-0.160767 1.393312,1.136046 -0.131082,0.160767 q -0.174164,-0.142005 -0.295768,-0.129637 -0.135001,0.0014 -0.298853,0.202404 l -2.414098,2.960789 1.902407,1.55114 3.550144,-4.354102 q 0.163853,-0.200959 0.151485,-0.322562 -0.02577,-0.132528 -0.19993,-0.274534 l 0.131082,-0.160766 1.353121,1.103275 -0.131082,0.160767 q -0.174164,-0.142006 -0.282371,-0.118714 -0.108207,0.02329 -0.272059,0.224251 l -4.522338,5.546456 -0.160766,-0.131082 q 0.152929,-0.187561 0.129637,-0.295768 -0.02577,-0.132527 -0.253519,-0.318227 z"
           id="path4842" />
        <path
           d="m -27.4221,-33.345315 q 0.175271,0.235873 0.29263,0.277882 0.120925,0.01783 0.342923,-0.147136 l 0.123721,0.166499 -1.553988,1.154723 -0.12372,-0.166498 q 0.221998,-0.164961 0.225947,-0.275576 0.0075,-0.134799 -0.167756,-0.370672 l -3.711611,-4.99496 q -0.175271,-0.235873 -0.296195,-0.253697 -0.11736,-0.04201 -0.339358,0.122951 l -0.123721,-0.166499 4.245716,-3.154869 q 0.915743,-0.680462 1.672221,-0.531892 0.756477,0.148571 1.344149,0.939439 0.597982,0.804744 0.463286,1.550911 -0.13113,0.721983 -0.915254,1.347715 l 3.258323,1.196877 q 0.210535,0.08045 0.321149,0.0844 0.100305,-0.0099 0.211304,-0.0924 l 0.12372,0.166498 -1.498488,1.113484 -0.12372,-0.166499 q 0.152624,-0.11341 0.170064,-0.147905 0.021,-0.05868 -0.03055,-0.128055 -0.05155,-0.06937 -0.144725,-0.107818 -0.09317,-0.03845 -0.25534,-0.111769 l -2.947483,-1.126349 -2.192233,1.628985 z m 0.749005,-5.165263 q 0.499496,-0.371161 0.542659,-0.74781 0.04316,-0.376648 -0.297069,-0.83452 -0.371161,-0.499496 -0.75812,-0.556533 -0.383393,-0.08122 -1.007763,0.382729 l -2.816603,2.092936 1.381545,1.859235 z"
           id="path4844" />
        <path
           d="m -18.1083,-38.624693 q 0.205869,-0.09009 0.234561,-0.196995 0.02176,-0.122737 -0.09605,-0.39195 l -0.984101,-2.248719 -3.947578,-2.423597 q -0.180155,-0.109848 -0.409794,-0.160303 -0.213802,-0.05739 -0.387999,0.01885 l -0.08316,-0.190032 1.96367,-0.859356 0.08316,0.190033 q -0.316721,0.138605 -0.247418,0.296966 0.03465,0.07918 0.139577,0.146475 0.098,0.05146 0.173225,0.09401 l 2.905249,1.766481 0.904308,-3.452516 q 0.07717,-0.297938 0.04252,-0.377118 -0.04158,-0.09502 -0.118786,-0.09897 -0.06137,-0.01088 -0.251401,0.07228 l -0.08316,-0.190033 1.96367,-0.859355 0.08316,0.190032 q -0.269213,0.117815 -0.333529,0.315782 -0.07125,0.182131 -0.177111,0.58697 l -1.173424,4.475997 0.9841,2.248719 q 0.117815,0.269213 0.222741,0.336508 0.113832,0.04453 0.367208,-0.06636 l 0.08316,0.190033 -1.773638,0.776192 z"
           id="path4846" />
        <path
           d="m -6.2008387,-44.224149 q -0.022118,0.174891 -0.018408,0.226617 0.00989,0.137934 0.2821217,0.309046 0.2882345,0.152633 0.7304089,0.276896 0.4594162,0.123026 1.0370519,0.202912 0.5936411,0.06141 1.2143464,0.01689 1.1896853,-0.08532 1.8226164,-0.442664 0.64893638,-0.37582 0.60689368,-0.962041 -0.0395696,-0.551738 -0.52117378,-0.742495 -0.4643623,-0.191994 -1.1602177,-0.228741 -0.697092,-0.05399 -1.5099304,-0.03035 -0.7968332,0.0052 -1.4988713,-0.117801 -0.7020381,-0.122956 -1.1960078,-0.486131 -0.4767279,-0.364411 -0.5336092,-1.157535 -0.046989,-0.655189 0.1794881,-1.122024 0.2424822,-0.485314 0.6709846,-0.793333 0.4272659,-0.325261 1.0048317,-0.487997 0.5935712,-0.181214 1.2315184,-0.226966 0.6724308,-0.04823 1.1971046,0.01813 0.5234372,0.04911 0.8941712,0.143838 0.3879758,0.09349 0.6195387,0.180864 0.23032633,0.07013 0.33377722,0.06271 0.0862091,-0.0062 0.13546143,-0.04438 0.0480158,-0.05543 0.12309592,-0.216795 l 0.23032636,0.07013 -0.51676529,1.735451 -0.21308454,-0.07137 q 0.014769,-0.03572 0.012296,-0.0702 0.013532,-0.05296 0.00735,-0.139171 -0.00989,-0.137934 -0.2624067,-0.275799 -0.2352726,-0.139101 -0.6417268,-0.248595 -0.3892123,-0.11073 -0.8954077,-0.161079 -0.4889536,-0.05159 -1.0062081,-0.01449 -0.6724308,0.04823 -1.0775785,0.198596 -0.4063843,0.133128 -0.6341677,0.340099 -0.2117781,0.188494 -0.2806755,0.436062 -0.070134,0.230326 -0.052822,0.471712 0.03586,0.500012 0.5002223,0.692006 0.4803676,0.173515 1.176223,0.210262 0.6958554,0.03675 1.4926886,0.03159 0.8128384,-0.02363 1.5148766,0.09932 0.70203808,0.122956 1.17876594,0.487368 0.49273312,0.345933 0.54837787,1.121814 0.0890316,1.241411 -0.76550013,1.891933 -0.83852648,0.632044 -2.82133528,0.774248 -0.6724308,0.04823 -1.2303517,0.0016 -0.5591574,-0.06388 -0.9988586,-0.153661 -0.423696,-0.108257 -0.7242261,-0.190687 -0.3017668,-0.09967 -0.4397013,-0.08978 -0.1379345,0.0099 -0.200719,0.101048 -0.062784,0.09116 -0.091085,0.179838 l -0.211848,-0.05413 0.5475393,-1.789649 z"
           id="path4848" />
        <path
           d="m 4.955737,-42.363973 q 0.2224665,0.03174 0.3031254,-0.04406 0.083101,-0.09291 0.1246069,-0.383829 l 0.3467002,-2.430018 -2.081118,-4.138374 Q 3.5536774,-49.54847 3.3849689,-49.71223 3.2333733,-49.873548 3.0451324,-49.900405 l 0.029299,-0.205353 2.1219878,0.302752 -0.029299,0.205354 q -0.3422561,-0.04883 -0.3666716,0.122297 -0.012208,0.08556 0.041594,0.198007 0.056243,0.09533 0.097816,0.171106 l 1.5406573,3.031057 2.5859703,-2.459756 q 0.2224225,-0.212722 0.2346303,-0.298286 0.014649,-0.102677 -0.048919,-0.146669 -0.046455,-0.04155 -0.251809,-0.07085 l 0.029299,-0.205354 2.1219878,0.302753 -0.0293,0.205353 q -0.290917,-0.04151 -0.449794,0.09298 -0.156435,0.11737 -0.459516,0.40589 l -3.3534513,3.188391 -0.3467002,2.430019 q -0.041506,0.290918 0.012296,0.403361 0.073356,0.09777 0.3471612,0.136836 l -0.029299,0.205354 -1.9166342,-0.273454 z"
           id="path4850" />
        <path
           d="m 12.809634,-42.788333 q -0.09295,0.149789 -0.111119,0.198359 -0.04845,0.129522 0.127775,0.398467 0.198476,0.258812 0.548721,0.555944 0.366436,0.303189 0.858317,0.616395 0.514128,0.303073 1.096977,0.521118 1.117128,0.417919 1.84138,0.356653 0.746499,-0.0714 0.95243,-0.621869 0.193818,-0.518088 -0.164581,-0.892095 -0.342208,-0.36795 -0.959534,-0.691173 -0.61127,-0.339414 -1.360098,-0.656464 -0.726582,-0.327184 -1.313624,-0.731358 -0.587042,-0.404175 -0.884873,-0.940084 -0.28164,-0.529853 -0.003,-1.274605 0.230158,-0.61523 0.630489,-0.945324 0.422577,-0.340229 0.940433,-0.441796 0.523912,-0.117757 1.116778,-0.02516 0.615114,0.08247 1.214153,0.306567 0.63142,0.236216 1.080787,0.515061 0.455424,0.262655 0.753022,0.50318 0.313788,0.246581 0.487921,0.422461 0.180189,0.15969 0.27733,0.196031 0.08095,0.03028 0.141636,0.01607 0.06674,-0.0304 0.202204,-0.145829 l 0.180189,0.15969 -1.192606,1.362543 -0.163999,-0.153633 q 0.0283,-0.02632 0.04042,-0.0587 0.03436,-0.04251 0.06464,-0.123465 0.04845,-0.129522 -0.123698,-0.36003 -0.155962,-0.22445 -0.479883,-0.493279 -0.307732,-0.262771 -0.746965,-0.51937 -0.423043,-0.250542 -0.908751,-0.432246 -0.63142,-0.236215 -1.062384,-0.268246 -0.424907,-0.04822 -0.718195,0.04508 -0.271042,0.08316 -0.436788,0.279544 -0.15969,0.180189 -0.244485,0.406853 -0.175647,0.469517 0.166561,0.837467 0.364455,0.357817 0.981782,0.68104 0.617326,0.323223 1.343907,0.650407 0.748829,0.31705 1.335871,0.721225 0.587043,0.404174 0.868683,0.934027 0.303887,0.519719 0.03133,1.248281 -0.436089,1.165698 -1.483914,1.401214 -1.025577,0.225381 -2.887457,-0.471151 -0.63142,-0.236215 -1.119224,-0.510984 -0.481748,-0.290959 -0.844107,-0.555711 -0.340111,-0.274885 -0.579005,-0.474992 -0.232837,-0.216297 -0.362359,-0.264752 -0.129522,-0.04845 -0.224567,0.0083 -0.09505,0.05672 -0.157709,0.125562 l -0.170056,-0.137443 1.243156,-1.399001 z"
           id="path4852" />
        <path
           d="m 29.473468,-38.882638 q 0.121989,-0.188726 0.09632,-0.308231 -0.01628,-0.134023 -0.234045,-0.27478 l -2.250192,-1.454486 -3.22802,4.993974 q -0.159524,0.246796 -0.157757,0.371435 0.02567,0.119506 0.257945,0.269646 l -0.112605,0.174208 -1.684015,-1.088518 0.112606,-0.174208 q 0.232278,0.15014 0.337266,0.115088 0.12889,-0.04019 0.288414,-0.28698 l 3.22802,-4.993974 -2.250192,-1.454486 q -0.21776,-0.140757 -0.34665,-0.100572 -0.119506,0.02567 -0.241495,0.214394 l -0.174208,-0.112605 0.975913,-1.509807 0.174208,0.112606 q -0.121989,0.188726 -0.105705,0.322749 0.02567,0.119505 0.243429,0.260262 l 5.45853,3.528301 q 0.21776,0.140757 0.337266,0.115089 0.12889,-0.04019 0.250879,-0.228911 l 0.174208,0.112605 -0.975913,1.509807 z"
           id="path4854" />
        <path
           d="m 33.097966,-36.737475 q 0.210642,-0.204904 0.21233,-0.327123 0.02613,-0.121882 -0.142613,-0.295352 l 0.148688,-0.144639 4.857432,4.993463 q 0.180798,0.185861 0.303018,0.187549 0.13461,-0.01037 0.295689,-0.167057 l 0.144639,0.148689 -1.288636,1.25353 -0.144638,-0.148688 q 0.161079,-0.156692 0.162767,-0.278911 0.01408,-0.134273 -0.166719,-0.320134 l -3.784699,-3.890688 -1.610794,1.566914 2.663753,2.73835 q 0.180797,0.185861 0.303017,0.187549 0.13461,-0.01037 0.295689,-0.167057 l 0.144639,0.148689 -1.288636,1.253531 -0.144638,-0.148689 q 0.161079,-0.156692 0.162767,-0.278911 0.01408,-0.134273 -0.166719,-0.320134 l -2.663753,-2.73835 -1.759483,1.711552 3.917284,4.026986 q 0.180797,0.18586 0.303017,0.187548 0.13461,-0.01037 0.295689,-0.167057 l 0.144639,0.148689 -1.251464,1.217371 -0.144638,-0.148688 q 0.16108,-0.156692 0.150377,-0.266858 -0.0107,-0.110166 -0.191501,-0.296027 l -4.990017,-5.129761 0.148689,-0.144638 q 0.168744,0.17347 0.278911,0.162767 0.13461,-0.01037 0.345252,-0.215269 z"
           id="path4856" />
        <path
           d="m 38.708374,-18.092366 q 0.132771,0.242625 0.250082,0.276954 0.140774,0.04119 0.398563,-0.09988 l 4.761517,-2.605639 -0.0166,-0.03033 -6.551611,0.01861 3.547657,-5.508001 -0.0166,-0.03033 -4.761516,2.605639 q -0.25779,0.14107 -0.307283,0.26668 -0.02603,0.132475 0.106741,0.3751 l -0.181969,0.09958 -0.912804,-1.668048 0.181969,-0.09958 q 0.132771,0.242625 0.250083,0.276954 0.140773,0.0412 0.398563,-0.09987 l 5.459063,-2.987358 q 0.257789,-0.141069 0.28382,-0.273545 0.04949,-0.125609 -0.08328,-0.368235 l 0.181969,-0.09958 1.111961,2.031985 -0.181969,0.09958 q -0.199157,-0.363937 -0.365962,-0.272657 -0.03033,0.0166 -0.147343,0.198861 l -2.895058,4.540023 5.384522,0.0092 q 0.216594,-2.96e-4 0.246922,-0.01689 0.166805,-0.09128 -0.03235,-0.455218 l 0.181969,-0.09958 1.128557,2.062313 -0.181969,0.09958 q -0.116175,-0.212297 -0.24865,-0.238328 -0.109014,-0.01917 -0.366803,0.121904 l -5.459063,2.987358 q -0.25779,0.141069 -0.315581,0.251515 -0.03433,0.117311 0.08185,0.329608 l -0.181969,0.09958 -0.9294,-1.698376 z"
           id="path4858" />
        <path
           d="m 42.581056,-13.48306 q -0.176132,0.0073 -0.226516,0.0196 -0.13436,0.03273 -0.257732,0.329661 -0.102485,0.309633 -0.151353,0.766329 -0.04478,0.473491 -0.02732,1.056364 0.03834,0.595576 0.185633,1.200193 0.282311,1.1588489 0.740095,1.7234093 0.47867,0.5772639 1.049698,0.4381541 0.537437,-0.1309269 0.645301,-0.6375786 0.111956,-0.4898569 0.03227,-1.1821108 -0.06289,-0.696345 -0.221598,-1.493889 -0.137823,-0.784841 -0.133532,-1.497552 0.0043,-0.712711 0.280104,-1.260278 0.279905,-0.530771 1.052471,-0.718979 0.638207,-0.155475 1.136247,-0.0099 0.518926,0.158249 0.894022,0.529454 0.391892,0.367113 0.648566,0.9095 0.277561,0.55509 0.428945,1.176502 0.159567,0.655001 0.181542,1.183398 0.03877,0.524305 0.0071,0.905638 -0.02755,0.3981284 -0.07513,0.6410111 -0.03079,0.2387912 -0.0062,0.3395607 0.02046,0.083975 0.06632,0.1261764 0.06266,0.03811 0.234271,0.085262 l -0.03079,0.2387912 -1.797286,-0.2204483 0.03488,-0.2219963 q 0.03768,0.00861 0.07127,4.291e-4 0.05448,0.00452 0.138451,-0.015937 0.134359,-0.032732 0.228233,-0.3046838 0.09797,-0.255157 0.138221,-0.674172 0.04435,-0.40222 0.0097,-0.90973 -0.03059,-0.490714 -0.153331,-0.994562 -0.159567,-0.655002 -0.375326,-1.029439 -0.198965,-0.37853 -0.44099,-0.568652 -0.221138,-0.17742 -0.476724,-0.204114 -0.238791,-0.03078 -0.47392,0.02649 -0.487052,0.118653 -0.599008,0.60851 -0.09107,0.50256 -0.01139,1.194814 0.07968,0.692254 0.217507,1.477094 0.158709,0.7975443 0.154418,1.5102556 -0.0043,0.7127113 -0.284195,1.2434828 -0.259019,0.5434749 -1.01479,0.7275908 -1.209234,0.2945855 -1.993017,-0.4396403 -0.762897,-0.7215224 -1.233415,-2.6529379 -0.159568,-0.655001 -0.20652,-1.212896 -0.03016,-0.561986 -0.01488,-1.010499 0.03616,-0.43581 0.06738,-0.745872 0.04801,-0.314154 0.01528,-0.448513 -0.03273,-0.13436 -0.133072,-0.181082 -0.100341,-0.04672 -0.192498,-0.05986 l 0.01808,-0.217905 1.855854,0.241764 z"
           id="path4860" />
      </g>
    </g>
    <circle
       style="fill:none;fill-opacity:1;stroke:#ffffff;stroke-width:2;stroke-opacity:0.5"
       id="path2154"
       cx="-0.027757002"
       cy="0.025784627"
       r="39.599327"
       sodipodi:insensitive="true" />
    <g
       id="g2322"
       transform="translate(-2.2317263,-2.7335179)">
      <ellipse
         style="fill:none;fill-opacity:1;stroke:#ffffff;stroke-width:1.49999;stroke-dasharray:none;stroke-opacity:0.4"
         id="path2273"
         cx="-6.8285775"
         cy="-5.0638461"
         rx="20.61706"
         ry="20.622499" />
      <ellipse
         style="fill:none;fill-opacity:1;stroke:#ffffff;stroke-width:0.5;stroke-dasharray:none;stroke-opacity:0.4"
         id="path2273-7"
         cx="13.379525"
         cy="-0.97672611"
         rx="20.61706"
         ry="20.622499" />
      <ellipse
         style="fill:none;fill-opacity:1;stroke:#ffffff;stroke-width:1;stroke-dasharray:none;stroke-opacity:0.4"
         id="path2273-3"
         cx="-0.26316342"
         cy="14.485044"
         rx="20.61706"
         ry="20.622499" />
    </g>
  </g>
</svg>
